<?xml version="1.0" encoding="UTF-8" standalone="no"?>
<svg
   xmlns:dc="http://purl.org/dc/elements/1.1/"
   xmlns:cc="http://creativecommons.org/ns#"
   xmlns:rdf="http://www.w3.org/1999/02/22-rdf-syntax-ns#"
   xmlns:svg="http://www.w3.org/2000/svg"
   xmlns="http://www.w3.org/2000/svg"
   version="1.1"
   id="svg1763"
   width="938"
   height="174"
   viewBox="0 0 938 174">
  <metadata
     id="metadata1769">
    <rdf:RDF>
      <cc:Work
         rdf:about="">
        <dc:format>image/svg+xml</dc:format>
        <dc:type
           rdf:resource="http://purl.org/dc/dcmitype/StillImage" />
        <dc:title></dc:title>
      </cc:Work>
    </rdf:RDF>
  </metadata>
  <defs
     id="defs1767" />
  <g
     id="g1771">
    <path
       style="fill:#d00200;fill-opacity:1"
       d="m 682.56332,161.98295 c -12.3002,-1.51401 -21.00084,-5.87156 -24.64181,-12.3414 -2.80797,-4.98964 -2.38859,-8.68263 4.04748,-35.64155 7.27263,-30.463016 7.45373,-31.542086 7.3843,-44 -0.0795,-14.27089 -2.67488,-25.725433 -8.72055,-38.487976 -5.33691,-11.266334 -6.06528,-14.053568 -4.59812,-17.595603 2.00329,-4.8363657 6.91729,-6.4115872 20.00936,-6.414156 9.56405,-0.00188 12.02983,0.3160754 14.37673,1.8538224 2.66612,1.7469136 2.79701,2.1578166 2.2252,6.9858316 -0.33415,2.82136 -2.27203,10.695137 -4.30641,17.497283 -4.07286,13.618052 -3.91456,15.432037 1.39327,15.96535 1.74723,0.175556 6.88402,-1.201018 12.12762,-3.25 C 706.86349,44.599548 711.69286,43 712.59232,43 c 3.32795,0 9.14297,4.310456 12.28049,9.103063 3.83156,5.852779 7.23272,14.564548 10.16707,26.042063 10.42367,40.771424 6.58501,70.287184 -10.26856,78.955904 -8.27542,4.2565 -28.38887,6.58289 -42.208,4.88192 z m 24.37423,-73.723354 c 5.73203,-6.953942 5.52574,-15.035265 -0.54556,-21.372335 -3.91674,-4.088191 -6.10547,-3.733909 -8.41892,1.362739 -1.45433,3.203949 -1.93455,6.53463 -1.95111,13.532224 -0.0205,8.676227 0.1225,9.335663 2.19074,10.100757 3.2681,1.208946 5.50861,0.278471 8.72485,-3.623385 z M 54,160.93417 c -11.78962,-1.7619 -20.264365,-6.16053 -27.840473,-14.45 C 7.6422602,126.22333 4.6835072,80.943469 19.772807,48.743744 29.596465,27.780607 40.470895,16.3194 55.751273,10.823908 64.309005,7.7461733 79.680215,7.7542443 86.5,10.840053 c 9.901153,4.480063 15.43814,12.334203 15.47804,21.955402 0.0177,4.264825 -0.44223,5.759645 -2.363088,7.680502 -4.888869,4.88887 -18.246942,5.931686 -21.679665,1.692454 -0.903998,-1.116391 -1.949183,-4.62955 -2.322632,-7.80702 C 74.782897,27.301444 72.921493,25 68.041179,25 60.516444,25 53.95977,36.631881 53.654391,50.522911 c -0.29637,13.481222 7.336555,22.499675 19.709818,23.287545 7.286543,0.463972 10.315654,-0.746186 15.581958,-6.225137 5.771877,-6.004939 9.998751,-4.315896 14.655783,5.856392 4.8732,10.644479 6.66531,19.978295 6.73124,35.058289 0.0528,12.08606 -0.24944,14.88862 -2.21118,20.5 C 99.272462,154.31336 81.169947,164.99457 54,160.93417 Z m 96.28604,-0.32349 c -14.76283,-4.82895 -25.85752,-18.30814 -29.85361,-36.26981 -1.30618,-5.87102 -1.56722,-10.53015 -1.1602,-20.70814 C 119.91125,87.653014 122.19585,78.41417 128.94905,64.5 137.65494,46.562538 148.13252,38.580861 163,38.560439 c 5.91913,-0.0081 8.55058,0.501373 12.48418,2.417201 17.89762,8.716881 29.936,39.339252 28.14319,71.5886 -1.37421,24.71946 -8.55695,39.43995 -22.48451,46.08027 -4.79459,2.28594 -7.22128,2.7394 -16.14286,3.01647 -7.0358,0.21851 -11.89029,-0.12867 -14.71396,-1.0523 z m 21.3244,-78.194675 c 1.03634,-4.129108 -0.51667,-15.5395 -2.7452,-20.169804 -4.97714,-10.341164 -13.68419,-4.186511 -14.66776,10.368021 -0.65784,9.734611 1.65219,12.202655 11.53347,12.322392 4.81395,0.05833 5.28265,-0.1426 5.87949,-2.520609 z m 114.98327,78.573935 c -3.89331,-1.20642 -9.09455,-6.39194 -11.43878,-11.40421 -3.45039,-7.37739 -3.51724,-11.49634 -0.57296,-35.30315 2.48485,-20.091952 2.66124,-23.407888 1.62377,-30.525939 -1.53622,-10.54002 -5.12428,-18.447107 -8.78816,-19.366682 C 257.16675,61.817163 255.2234,80.077247 262.45706,111 c 4.75136,20.31133 5.6689,33.66615 2.76417,40.23277 -1.32881,3.00401 -3.1376,5.18975 -5.16035,6.23575 -4.87518,2.52105 -18.51327,3.92884 -26.30678,2.7155 C 215.05598,157.27299 212.03172,149.30765 220.96505,126.5 228.0143,108.50261 232.84059,93.840158 233.55848,88.240732 234.50563,80.853172 232.70842,74.771652 226.9859,66 220.89138,56.658128 219,52.174101 219,47.067302 219,42.205616 220.75905,41 227.85247,41 c 6.70999,0 7.90181,0.598023 10.21045,5.123335 2.59839,5.093256 4.52407,4.971878 11.89163,-0.749543 6.80407,-5.283842 10.89724,-6.377926 19.89284,-5.317259 7.70444,0.908427 10.61108,2.778677 13.4326,8.64307 3.50228,7.27934 4.72899,7.501062 10.6838,1.93104 7.71864,-7.219883 12.46393,-8.97359 25.53621,-9.437343 13.32731,-0.472801 22.29726,0.944831 24.75,3.911548 3.12566,3.780654 2.34241,13.25507 -2.21477,26.790524 -3.51117,10.428649 -3.84622,12.223755 -2.92851,15.690273 0.56994,2.152895 5.36404,12.883365 10.65354,23.845485 9.36347,19.40511 9.62874,20.14942 10.05142,28.20242 0.39448,7.51581 0.19822,8.67384 -2.14865,12.67846 -3.63986,6.21096 -10.23666,9.01815 -21.28688,9.0584 -10.98048,0.04 -16.36816,-2.62049 -20.64641,-10.19539 -4.3456,-7.69416 -4.53115,-14.25756 -1.19125,-42.1368 2.47224,-20.636537 2.65346,-24.110032 1.60854,-30.831226 -1.35116,-8.690961 -3.77345,-13.565506 -6.97174,-14.029699 -3.09916,-0.449808 -5.84652,6.089009 -7.10612,16.912834 -0.81129,6.971501 -0.53882,12.600193 1.59306,32.909871 3.33853,31.80493 2.37231,40.71215 -4.92616,45.4121 -3.02568,1.94843 -8.60621,2.67359 -12.14236,1.57784 z m 207.37187,-0.0179 c -12.44296,-1.45688 -19.01987,-5.86143 -20.98518,-14.05378 -1.57589,-6.56902 -0.24878,-12.23319 6.1407,-26.20881 15.0033,-32.816511 14.95674,-32.323878 4.93618,-52.226565 C 478.29725,57.042414 477,53.600076 477,49.755968 c 0,-6.632002 2.41903,-8.050649 14.63907,-8.585112 10.81369,-0.472953 13.12078,0.477933 16.30547,6.720434 2.03026,3.979638 4.36735,5.608249 6.3957,4.456873 0.63787,-0.362079 3.0504,-2.175753 5.36118,-4.030386 6.25948,-5.02386 11.96087,-7.270634 18.51378,-7.295815 4.98292,-0.01915 6.16812,0.375698 9.25,3.08163 L 551,47.207184 V 63.577912 79.94864 l -2.95034,1.52568 C 546.23808,82.411127 542.42559,83 538.1721,83 c -8.91139,0 -10.03857,-1.094477 -8.26281,-8.023123 1.33956,-5.226678 1.06433,-6.385446 -1.89253,-7.967906 -2.71428,-1.45264 -7.20574,2.679097 -10.0205,9.217949 -4.55219,10.575029 -2.01014,21.903957 8.91767,39.74254 9.07171,14.80867 12.25073,21.75484 12.81761,28.0065 0.45835,5.05483 0.23628,5.90883 -2.32941,8.95798 -3.86311,4.59105 -9.39867,6.81535 -19.97705,8.0272 -9.90274,1.13445 -13.848,1.13629 -23.4595,0.0109 z m 99.4171,0.13205 c -19.59472,-5.0113 -33.19962,-26.54467 -33.34779,-52.78176 -0.15953,-28.247051 13.82554,-58.725179 30.74469,-67.002949 4.63407,-2.267238 7.02444,-2.773623 13.19009,-2.794236 13.93113,-0.04657 23.59876,7.191359 31.85183,23.846756 7.09934,14.327075 8.67176,22.243046 8.6662,43.628069 -0.004,14.55661 -0.38147,19.88552 -1.77186,25 -3.8776,14.26354 -10.43189,23.12938 -20.56046,27.81169 -4.72692,2.1852 -7.29711,2.65343 -15.65538,2.85204 -5.5,0.1307 -11.40279,-0.12113 -13.11732,-0.55961 z M 612.82972,78.5 C 613.69787,62.702303 606.77275,52.290739 600.11248,59.380272 597.69626,61.952218 595,69.66761 595,74.009708 c 0,7.986363 3.56195,11.030897 12.5,10.684223 L 612.5,84.5 Z M 870,160.8744 c -8.43349,-0.97393 -15.25328,-3.99365 -18.33192,-8.11716 -2.85289,-3.82113 -3.4145,-13.16387 -1.20191,-19.99451 0.9376,-2.8945 4.53837,-11.33773 8.00172,-18.76273 11.72386,-25.134502 11.78552,-26.539727 2.00063,-45.599115 -9.23714,-17.992464 -9.70376,-22.889241 -2.4574,-25.788658 5.16543,-2.066796 18.02811,-2.160418 21.89769,-0.159385 1.54521,0.799063 3.36399,2.79153 4.04171,4.427706 0.67773,1.636175 2.05019,3.715111 3.04993,4.619858 1.67308,1.514116 2.04373,1.517397 4.65862,0.04123 1.56251,-0.882069 4.7648,-3.14677 7.11619,-5.032669 9.23494,-7.40675 22.75497,-7.453456 27.57624,-0.09526 1.34476,2.052359 1.6485,5.257663 1.6485,17.396124 0,13.746714 -0.15666,15.021971 -2.0566,16.741394 -2.22193,2.010822 -12.71263,3.225481 -17.49373,2.025501 -2.53727,-0.636815 -2.59366,-0.828395 -2.2757,-7.731884 0.29989,-6.511334 0.15075,-7.145205 -1.86011,-7.906017 -2.97687,-1.126303 -6.20467,1.550074 -9.26877,7.685348 -5.50037,11.013426 -3.27647,22.088404 8.29109,41.289407 12.75052,21.16461 15.03032,28.60944 11.09269,36.22397 -2.23524,4.32248 -9.90499,7.55227 -20.93463,8.81573 -10.12506,1.15985 -12.84696,1.15071 -23.49424,-0.0789 z M 385.70384,159.60282 C 377.10896,157.24256 373.01115,151.23669 373.01115,141 c 0,-7.0999 1.529,-11.45495 9.7719,-27.83333 C 390.26144,98.307357 390.5,97.611795 390.5,90.666672 c 0,-6.795759 -0.34935,-7.892609 -6.75,-21.193013 -8.85706,-18.404758 -8.8262,-20.843329 0.32285,-25.510823 6.46965,-3.300572 15.70138,-4.932346 27.99349,-4.948055 13.43214,-0.01716 20.70218,1.069281 30.43366,4.54805 9.61391,3.436741 16.16082,8.416157 18.74423,14.256388 1.83533,4.149072 1.939,5.275595 0.92872,10.09212 -2.03689,9.710955 -5.81277,12.145748 -24.33999,15.695136 -15.34591,2.93992 -20.12274,4.660647 -22.34238,8.048244 -2.9652,4.525472 -2.10801,7.718615 7.27623,27.104761 C 433.0292,139.95971 434,142.5468 434,148.69468 c 0,5.32651 -2.85881,8.68407 -8.63505,10.14153 -6.80232,1.71637 -34.26924,2.24727 -39.66111,0.76661 z m 36.01902,-90.023074 c 1.58197,-1.33114 3.74301,-4.029625 4.80231,-5.996632 1.91605,-3.557877 1.91526,-3.587132 -0.15283,-5.655219 -1.14336,-1.143363 -3.91067,-2.324542 -6.14957,-2.624841 -3.48391,-0.46729 -4.4596,-0.157136 -6.76823,2.151501 -2.33434,2.334333 -2.63038,3.293035 -2.19892,7.120926 0.27422,2.432884 1.05899,5.098671 1.74393,5.923972 1.83463,2.210596 5.45703,1.828682 8.72331,-0.919707 z M 777.2646,159.50756 c -4.32384,-0.784 -9.75631,-2.68778 -13.5,-4.73099 -12.83716,-7.00618 -16.82534,-21.4509 -11.75828,-42.58705 2.58937,-10.80099 6.00159,-17.869771 11.66868,-24.172941 6.1243,-6.811696 11.14542,-10.119919 22.40416,-14.761246 7.7423,-3.191702 9.70854,-4.448114 11.03558,-7.051634 2.04799,-4.017954 1.32965,-7.866418 -1.8582,-9.955179 -2.19632,-1.439084 -2.78561,-1.461178 -5.0418,-0.189032 C 788.8096,56.851769 785.56526,60.2 783.0051,63.5 c -5.43706,7.008253 -9.99012,9.165626 -16.5051,7.820601 -3.53276,-0.729343 -4.16781,-1.310898 -5.4366,-4.978691 -5.1171,-14.792325 14.31726,-27.176484 40.99685,-26.124432 9.21128,0.363227 11.40401,0.811264 17.16555,3.507412 10.30037,4.820123 10.4489,5.878088 4.01033,28.564713 -4.30798,15.17937 -4.26927,15.480241 4.31549,33.540687 6.29873,13.25114 8.93489,21.17271 9.87359,29.66971 0.60632,5.48833 0.37112,6.60329 -2.75795,13.07435 -3.32349,6.8731 -3.57366,7.12175 -8.79403,8.7407 -12.08606,3.74813 -34.46287,4.75745 -48.60863,2.19251 z m 15.28252,-53.59867 c 2.01349,-3.89366 4.63782,-16.263382 3.87316,-18.256053 -1.56964,-4.090416 -6.87925,-1.969295 -10.21712,4.08161 -2.84436,5.156279 -3.20417,11.088873 -0.88701,14.625313 2.33396,3.56207 5.24981,3.38026 7.23097,-0.45087 z"
       id="path2336" />
  </g>
</svg>
