<?xml version="1.0" encoding="UTF-8" standalone="no"?>
<svg
   xmlns:dc="http://purl.org/dc/elements/1.1/"
   xmlns:cc="http://creativecommons.org/ns#"
   xmlns:rdf="http://www.w3.org/1999/02/22-rdf-syntax-ns#"
   xmlns:svg="http://www.w3.org/2000/svg"
   xmlns="http://www.w3.org/2000/svg"
   version="1.1"
   id="svg2408"
   width="765"
   height="170"
   viewBox="0 0 765 170">
  <metadata
     id="metadata2414">
    <rdf:RDF>
      <cc:Work
         rdf:about="">
        <dc:format>image/svg+xml</dc:format>
        <dc:type
           rdf:resource="http://purl.org/dc/dcmitype/StillImage" />
        <dc:title></dc:title>
      </cc:Work>
    </rdf:RDF>
  </metadata>
  <defs
     id="defs2412" />
  <g
     id="g2416">
    <path
       style="fill:#d00200;fill-opacity:1"
       d="M 349.65869,161.90261 C 336.37929,159.9623 331,153.51062 331,139.52422 c 0,-9.23763 1.33187,-14.4731 7.51076,-29.52422 2.37079,-5.775 5.07909,-13.425 6.01844,-17 1.90322,-7.243364 2.26353,-21.650258 0.61833,-24.724335 -0.66027,-1.233727 -3.26394,-2.605948 -6.85797,-3.614382 C 329.97472,62.328259 328,60.684888 328,56.098284 328,51.509697 329.87141,49.615299 336,48 c 4.7123,-1.24201 8,-3.495144 8,-5.482579 0,-0.644933 -1.14362,-3.987069 -2.54138,-7.426969 -1.39775,-3.4399 -2.28768,-7.053684 -1.97761,-8.03063 0.80821,-2.546421 6.93392,-4.97654 14.93063,-5.923098 8.04037,-0.951727 14.28026,-0.0035 20.58836,3.128816 5.82965,2.894695 6.28024,5.753384 2.06743,13.116608 C 371.82461,46.545639 373.40855,49 384.5651,49 391.199,49 394,51.219729 394,56.476947 c 0,4.24964 -2.37639,6.00596 -9.48683,7.011443 -6.68528,0.945363 -9.97527,2.798786 -11.49932,6.478185 -2.64836,6.3937 1.48107,20.891612 10.5482,37.033425 9.80153,17.44923 11.86829,22.68641 12.27152,31.096 0.39737,8.28746 -1.30921,13.28696 -5.98625,17.53703 -7.14075,6.48885 -22.39804,8.86905 -40.18863,6.26958 z m 269.74342,0.10039 c -14.71159,-2.15713 -20.38159,-8.51158 -20.39653,-22.85866 -0.007,-7.1428 2.08482,-14.82225 8.08516,-29.67588 5.59136,-13.841215 7.87328,-23.102096 7.87715,-31.96846 0.004,-8.507914 -1.28747,-10.440643 -8.63112,-12.919552 C 598.98707,62.099496 596,59.630405 596,56.036142 c 0,-4.123061 2.07348,-6.041815 9.0541,-8.378473 C 612.6966,45.099457 613.29706,43.623437 610,35.5 c -1.18901,-2.929544 -2.01293,-6.377994 -1.83092,-7.663222 0.45236,-3.194319 6.05898,-5.769821 14.52311,-6.671452 8.20022,-0.873518 14.10512,0.02023 20.23114,3.062118 5.98103,2.969895 6.32751,5.5971 1.89455,14.365401 l -3.31788,6.562683 2.36078,1.922236 C 645.57089,48.470198 647.78341,49 651.88828,49 c 8.03264,0 10.30348,1.796567 9.91274,7.842437 L 661.5,61.5 656,62.761388 c -10.36966,2.378211 -11.30051,2.760514 -13.32554,5.472822 -4.707,6.304515 -0.93332,20.528641 11.26761,42.47102 8.54281,15.36354 11.57274,24.30019 10.70965,31.58767 -0.83579,7.05694 -5.03449,13.51345 -10.67573,16.41653 -7.58222,3.90195 -21.42882,5.221 -34.57388,3.29357 z M 49.466879,160.60815 C 33.903014,157.63317 22.66499,149.2496 16.007593,135.64751 10.99138,125.39862 9.2536544,118.55994 7.8970132,103.72897 5.6782874,79.473588 10.775709,57.155468 23.113196,37.107724 32.737851,21.468183 44.41389,12.498994 59.235076,9.3599612 66.874931,7.7418886 75.956295,8.0654225 82.151808,10.176396 92.505412,13.704139 99,22.549818 99,33.123764 99,38.12169 98.663486,39.119541 96.369453,40.924029 91.22339,44.971922 79.359206,46.202856 75.59562,43.079357 74.822609,42.437815 73.664851,38.895011 73.022825,35.206459 71.652547,27.333965 69.914366,25 65.421738,25 58.77896,25 53.151852,33.118847 51.141149,45.604176 48.72701,60.594604 56.01352,72.148349 68.839563,73.667404 76.747285,74.603957 80.287415,73.4756 85.135106,68.47347 c 6.833989,-7.051706 10.026249,-6.184898 15.190874,4.124843 4.95345,9.888195 7.06038,20.512251 7.11988,35.901687 0.0578,14.95506 -0.82788,19.22299 -6.22456,29.99387 -3.889046,7.76189 -14.486369,17.72822 -21.7213,20.42795 -7.53211,2.81063 -20.377854,3.53191 -30.033121,1.68633 z m 99.267591,0.36489 c -19.30838,-4.86224 -32.6636,-26.53458 -32.71711,-53.09205 -0.0584,-28.985974 13.39263,-58.063428 30.7993,-66.579719 4.70111,-2.300038 6.95637,-2.768762 13.17757,-2.738765 13.99734,0.06749 23.29391,7.072834 31.49439,23.732306 6.32789,12.85526 8.5357,22.265472 9.19826,39.205188 1.17954,30.15741 -6.31541,49.27862 -22.40047,57.1483 -4.67123,2.28542 -7.01998,2.73307 -15.64151,2.98111 -5.57969,0.16052 -11.83939,-0.13484 -13.91043,-0.65637 z M 168.41409,76 c -0.0914,-9.04032 -2.72992,-17.416491 -5.86532,-18.619659 -5.13863,-1.971877 -10.40619,4.790495 -11.24424,14.435094 C 150.4065,82.150231 153.07014,85.086771 163,84.709156 L 168.5,84.5 Z m 56.48887,84.98716 c -7.36817,-1.24635 -10.50401,-3.37567 -12.44108,-8.44781 -2.67722,-7.0102 -1.57158,-11.99473 7.41549,-33.43118 15.33002,-36.565974 15.49182,-39.090829 3.62773,-56.60817 -2.98001,-4.4 -5.69565,-9.174171 -6.03474,-10.609268 -1.9394,-8.207879 16.05521,-12.842334 20.93673,-5.39219 2.2118,3.375643 4.72796,3.148478 10.04021,-0.906453 C 255.32097,40.345301 258.8665,39.5 274,39.5 c 14.73203,0 21.57001,1.62031 24.50167,5.805854 2.39185,3.41483 1.80934,12.096624 -1.51933,22.644788 -4.25271,13.47628 -4.07445,15.063856 3.65481,32.549358 13.44349,30.4125 15.65965,36.47994 16.15884,44.23986 0.52985,8.23678 5.4e-4,9.29813 -6.22909,12.49019 -3.01519,1.54498 -6.61246,2.20833 -13.91042,2.56511 -13.35042,0.65269 -19.69795,-0.83663 -24.64339,-5.78207 -6.99093,-6.99093 -7.24385,-13.67034 -1.91272,-50.51309 3.1896,-22.042912 3.40761,-26.032929 1.82547,-33.410202 -1.99748,-9.313937 -8.07109,-13.070381 -12.84603,-7.945091 -4.20179,4.510098 -4.33872,9.983215 -1.09719,43.855293 3.53192,36.90653 3.62747,41.0595 1.074,46.68368 -2.43332,5.35957 -5.96149,7.1629 -16.35155,8.35765 -9.21554,1.05969 -11.25387,1.05348 -17.80211,-0.0542 z M 530.5,160.614 c -11.34162,-2.75809 -19.1522,-9.03088 -24.03416,-19.3022 -4.52357,-9.51728 -5.86491,-17.4391 -5.80973,-34.3118 0.0598,-18.270332 1.8032,-26.311075 8.49301,-39.169737 5.2521,-10.095203 12.13312,-17.119138 20.78913,-21.220896 C 536.09723,43.690855 537.20588,43.5 548,43.5 c 10.83862,0 11.77846,0.163676 16.34187,2.845993 3.45057,2.028203 5.38385,4.039637 6.72804,7 2.35812,5.193412 2.50645,13.386132 0.2994,16.537134 -3.50612,5.005688 -14.58989,6.896297 -18.35524,3.13094 -1.09227,-1.092263 -2.27727,-3.807865 -2.63336,-6.034671 C 549.62091,62.227848 546.62246,58 544.01241,58 c -2.75916,0 -9.56878,8.343865 -11.00966,13.490182 -3.04092,10.861098 1.95311,20.100267 12.19251,22.556661 5.94474,1.42612 9.19715,0.857433 17.48123,-3.056608 10.33057,-4.880958 14.77902,-3.971648 18.73191,3.828998 3.58099,7.066737 4.85988,15.410457 4.41761,28.821257 -0.34508,10.46385 -0.73005,12.60188 -3.27125,18.16773 -4.92708,10.79152 -13.85472,16.73637 -28.76815,19.15649 -8.10567,1.31537 -16.98537,1.18164 -23.28661,-0.35071 z m 173.42935,0.0804 c -19.13937,-5.419 -31.85891,-26.46946 -31.91199,-52.81337 -0.0595,-29.518606 13.93412,-59.101176 31.76541,-67.152369 6.56798,-2.965577 17.88901,-2.955226 24.48507,0.02239 10.4325,4.70947 21.00155,20.519993 25.90302,38.748991 2.8831,10.722523 3.2037,40.204748 0.55196,50.758928 -3.4185,13.60599 -10.59406,23.57396 -20.43641,28.38937 -4.64715,2.27364 -7.06442,2.73954 -15.64151,3.0147 -6.26905,0.20112 -11.89111,-0.16895 -14.71555,-0.96864 z M 724.41409,76 c -0.0914,-9.04032 -2.72992,-17.416491 -5.86532,-18.619659 -5.13863,-1.971877 -10.40619,4.790495 -11.24424,14.435094 C 706.4065,82.150231 709.07014,85.086771 719,84.709156 L 724.5,84.5 Z m -291.6507,83.96719 c -12.60743,-2.12288 -20.87559,-6.88977 -25.43001,-14.6613 -2.4678,-4.21097 -2.84525,-5.99132 -3.17842,-14.99191 -0.44529,-12.02906 1.38095,-21.71075 5.89616,-31.258153 5.52292,-11.678206 13.83809,-19.1015 28.17134,-25.1497 5.77205,-2.435628 10.63471,-5.180381 11.79824,-6.659569 3.50062,-4.450322 2.15727,-10.483106 -2.60021,-11.677158 -3.54589,-0.88996 -6.2023,1.015469 -10.87575,7.801108 -4.46179,6.478333 -10.00696,9.328165 -15.97286,8.208955 C 416.0505,70.731247 414,67.719061 414,61.925377 c 0,-12.188202 13.96136,-20.666652 35.66686,-21.659758 9.50535,-0.434904 12.21087,-0.193819 18.18347,1.620302 3.85913,1.172174 8.39654,3.29237 10.08313,4.711546 4.1467,3.489214 4.05478,7.819333 -0.49858,23.487821 -1.96081,6.747325 -3.58785,13.914987 -3.61563,15.928136 -0.0341,2.471523 1.96629,7.973447 6.15941,16.940936 8.40457,17.97417 10.10602,23.17606 10.64515,32.54564 0.43624,7.58164 0.28816,8.31377 -2.83175,14 -2.96394,5.40197 -3.79133,6.16578 -8.30124,7.66329 -10.49241,3.48397 -34.22958,4.90834 -46.72743,2.8039 z M 445.26058,107.25 C 447.05552,105.24998 450,94.674718 450,90.2281 c 0,-7.994313 -8.24526,-4.813823 -11.55119,4.455704 -1.93169,5.416296 -1.75889,8.652276 0.62377,11.681336 2.42125,3.07813 4.01509,3.30604 6.188,0.88486 z"
       id="path2981" />
  </g>
</svg>
