<?xml version="1.0" encoding="UTF-8" standalone="no"?>
<svg
   xmlns:dc="http://purl.org/dc/elements/1.1/"
   xmlns:cc="http://creativecommons.org/ns#"
   xmlns:rdf="http://www.w3.org/1999/02/22-rdf-syntax-ns#"
   xmlns:svg="http://www.w3.org/2000/svg"
   xmlns="http://www.w3.org/2000/svg"
   version="1.1"
   id="svg1108"
   width="616"
   height="172"
   viewBox="0 0 616 172">
  <metadata
     id="metadata1114">
    <rdf:RDF>
      <cc:Work
         rdf:about="">
        <dc:format>image/svg+xml</dc:format>
        <dc:type
           rdf:resource="http://purl.org/dc/dcmitype/StillImage" />
        <dc:title></dc:title>
      </cc:Work>
    </rdf:RDF>
  </metadata>
  <defs
     id="defs1112" />
  <g
     id="g1116">
    <path
       style="fill:#d00200;fill-opacity:1"
       d="m 369.13853,162.89519 c -7.38389,-2.91711 -12.65688,-8.43057 -14.66312,-15.33178 -1.4573,-5.01293 -1.46215,-6.06656 -0.0532,-11.56603 0.85256,-3.32787 4.91293,-12.67618 9.02304,-20.77403 7.49559,-14.768 10.51204,-23.921083 10.54002,-31.982531 0.0113,-3.255982 -1.37752,-6.96141 -5.89637,-15.731757 -3.74306,-7.264661 -5.71772,-12.212263 -5.38377,-13.489277 0.80898,-3.093558 6.78379,-7.804136 11.53179,-9.091733 4.9382,-1.339178 21.23769,-0.693716 27.14086,1.074782 2.13274,0.638939 4.99927,2.283258 6.37006,3.654043 2.12572,2.125728 2.4259,3.180056 2.04074,7.167729 -0.24838,2.571467 -2.37765,8.950091 -4.73171,14.174722 -3.43265,7.61845 -4.38266,10.995302 -4.79798,17.054712 l -0.51786,7.555385 8.48627,16.504475 c 4.66745,9.07747 9.45073,19.08223 10.62951,22.2328 3.96441,10.59583 2.21063,18.47229 -5.24209,23.54298 -7.133,4.85317 -12.9671,6.33173 -26.61467,6.74506 -10.93665,0.33123 -13.17055,0.11367 -17.86147,-1.73955 z m -234.4173,-2.24523 c -6.01432,-1.70583 -9.43891,-4.8878 -10.83317,-10.06568 -1.67237,-6.2107 -0.77446,-9.63944 8.15369,-31.13573 C 142.17381,95.053632 144,89.381466 144,82.306133 c 0,-6.045713 -2.75827,-12.687907 -8.03606,-19.351664 -4.2456,-5.36051 -6.9493,-11.817404 -6.01341,-14.361055 1.17622,-3.196818 6.7154,-5.944458 12.14339,-6.023569 4.10059,-0.05976 5.27636,0.399206 8.14676,3.180155 1.84499,1.7875 4.00811,3.245632 4.80693,3.240294 0.79881,-0.0053 3.39787,-1.556326 5.77569,-3.446638 6.65285,-5.288878 9.9385,-6.045518 26.1767,-6.028123 16.54442,0.01772 20.60521,1.148218 23.97437,6.674291 2.72702,4.472857 2.55442,7.846341 -0.9907,19.363242 -5.38723,17.501255 -5.55962,16.383652 6.70166,43.446934 8.61028,19.00475 12.28299,29.29294 13.02558,36.48795 0.46115,4.46812 0.20028,5.46414 -2.1684,8.27915 -3.71503,4.41507 -10.43605,6.2329 -23.0447,6.2329 -9.07806,0 -10.70739,-0.2878 -15.5685,-2.75 -4.4395,-2.24865 -5.88508,-3.66154 -7.92931,-7.75 -2.17229,-4.34458 -2.47585,-6.17975 -2.31577,-14 0.10133,-4.95 1.56383,-18.53159 3.25,-30.18131 3.31807,-22.924445 3.63228,-28.578693 2.00881,-36.148662 -1.8946,-8.834229 -8.78121,-11.985579 -13.19965,-6.040235 -3.16759,4.262241 -3.14284,13.05322 0.13481,47.870207 3.19169,33.90403 3.1405,38.23307 -0.51849,43.84354 -0.84062,1.28895 -3.52625,3.22729 -5.96808,4.30742 -5.84401,2.58509 -22.81766,3.44262 -29.6704,1.499 z m 150.77829,-0.48726 c -3.65321,-2.22788 -7.8949,-9.75985 -9.98905,-17.73756 -0.85545,-3.25883 -2.46847,-13.09573 -3.58449,-21.85979 C 268.76024,95.70503 265.91801,89.05482 252.47316,75.049953 242.98483,65.166403 241,61.806176 241,55.626385 c 0,-5.728554 3.07237,-9.536187 10.70984,-13.272854 13.78052,-6.742176 33.90851,-0.591399 37.23236,11.377584 0.57566,2.072887 1.04916,10.197217 1.05222,18.054068 C 290.00056,87.507982 291.01736,91 295.58933,91 c 3.81222,0 5.73793,-4.91481 5.05521,-12.901957 -1.94012,-22.697745 -1.93999,-22.673179 -0.14087,-26.464534 2.28681,-4.819089 5.88922,-7.263171 13.62741,-9.245603 12.00272,-3.074952 24.57968,-0.07762 28.96296,6.902431 2.82769,4.502899 2.01386,10.210815 -2.79114,19.576087 -24.60376,47.954436 -25.06046,49.055176 -28.28668,68.177106 -2.49066,14.76221 -5.06788,20.73294 -10.01622,23.20492 -4.62274,2.30931 -12.64147,2.26764 -16.50048,-0.0857 z M 546.5,160.95168 c -8.9752,-1.40717 -14.55068,-4.62013 -17.25,-9.94061 -4.2142,-8.30638 -2.83581,-15.07978 7.53178,-37.01107 10.78787,-22.82035 11.309,-27.386357 4.60833,-40.37711 C 539.36941,69.705301 536.44165,64.025 534.88398,61 c -3.79206,-7.364195 -4.69726,-13.443851 -2.3825,-16.00164 2.55964,-2.828365 7.79083,-4.222889 16.0405,-4.27605 8.64442,-0.05571 11.18611,1.243606 14.62398,7.475792 1.29843,2.353813 3.06789,4.415835 3.93213,4.582272 0.86424,0.166437 4.02146,-1.714459 7.01605,-4.179769 6.08325,-5.008065 9.10185,-6.404871 16.36733,-7.573703 5.74773,-0.924666 8.84171,-0.02234 12.76853,3.723808 l 2.75,2.623472 v 16.277725 c 0,18.437872 0.46727,17.411147 -8.83159,19.405396 -3.57859,0.76747 -6.13963,0.758263 -9.07679,-0.03263 C 584.57659,82.078171 584,81.539884 584,79.204854 c 0,-1.494932 0.42559,-4.201998 0.94575,-6.015704 0.78633,-2.741763 0.6139,-3.629503 -1.02292,-5.266316 -2.50695,-2.506951 -4.83465,-1.407707 -8.89849,4.202266 -7.91595,10.927647 -5.60543,24.242623 7.95737,45.85645 9.46727,15.08713 13.30921,25.37576 11.54792,30.92508 -2.5404,8.0041 -12.28185,12.02968 -30.52963,12.61615 -6.325,0.20328 -14.2,-0.0537 -17.5,-0.5711 z m -504,-1.00215 c -9.320389,-1.43524 -18.728869,-4.6083 -23.14096,-7.8044 C 8.5641169,144.32533 9.4898246,132.93786 23.719951,98.5 33.21768,75.514858 35.785878,64.758294 34.050519,55.231764 33.415329,51.744791 30.390848,44.332985 26.327921,36.306739 19.803865,23.418569 19.67705,23.021277 20.843988,19.126386 22.311195,14.229285 26.140783,11.649843 35.068188,9.5455876 43.013448,7.6728313 79.807828,7.3690632 85.100777,9.1325271 89.301554,10.53211 95.577607,16.331873 97.942835,21 c 2.799155,5.524547 3.222165,8.669334 1.666839,12.391756 -2.583255,6.182598 -10.364717,5.54255 -18.401174,-1.513552 -7.024491,-6.167585 -13.693828,-7.11952 -16.788607,-2.396289 -2.76448,4.21913 -0.28264,6.366787 9.768863,8.453471 6.341572,1.316505 8.664659,3.33526 9.425335,8.190586 0.787319,5.025389 -1.149026,6.815015 -9.158442,8.464491 C 66.764761,56.174341 64,58.408156 64,63.038204 64,66.525615 68.075848,70 72.166977,70 c 4.659976,0 9.248194,-2.446376 15.682703,-8.361807 5.653248,-5.197194 6.218442,-5.479045 9.24595,-4.610767 10.67244,3.060817 14.25997,14.776062 15.33547,50.078774 0.54854,18.00548 0.38924,22.78887 -0.95588,28.70292 -2.77048,12.1809 -8.57932,18.52645 -20.465726,22.35669 -5.414423,1.74473 -9.537575,2.14891 -24.509494,2.40263 -9.9,0.16777 -20.7,-0.11074 -24,-0.61891 z m 411.9018,-0.43526 c -12.08825,-2.62993 -21.51687,-9.59963 -24.53111,-18.13356 -1.94906,-5.51819 -1.69424,-22.30964 0.46104,-30.38071 5.21557,-19.531222 14.84209,-30.160359 34.33441,-37.91039 8.36113,-3.324335 10.61226,-4.993842 11.74105,-8.707528 1.56854,-5.16049 -4.0559,-10.710821 -8.46348,-8.351955 -1.05894,0.566726 -3.74213,3.489711 -5.96266,6.495521 -4.68649,6.343875 -7.38452,8.341012 -12.35876,9.14822 -5.57408,0.904549 -9.4129,-1.182525 -10.65422,-5.792449 C 435.19048,51.85253 452.94035,39.834604 477.5,39.792557 c 10.41172,-0.01783 20.55653,2.70124 25.45422,6.822378 3.51337,2.9563 3.93614,6.705092 1.68231,14.917137 C 503.88662,64.264432 502.06881,71 500.59695,76.5 l -2.67611,10 2.17005,6 c 1.19352,3.3 3.97476,9.6 6.18053,14 5.67433,11.31897 8.76986,20.88781 9.38153,29 0.48969,6.49427 0.28648,7.46961 -2.81257,13.5 -3.11714,6.0656 -3.68572,6.6146 -8.50775,8.21486 -2.84205,0.94317 -8.01705,2.17727 -11.5,2.74244 -8.74231,1.41861 -31.05634,1.16137 -38.43083,-0.44303 z m 16.09792,-52.8735 c 1.47123,-2.24537 4.44603,-14.138303 4.48292,-17.922155 0.0216,-2.217286 -2.19498,-3.133121 -5.54692,-2.291837 -1.84325,0.462625 -3.23953,2.102403 -4.988,5.857847 -3.0094,6.463749 -3.15339,11.580805 -0.40876,14.526815 2.62757,2.82037 4.53395,2.77001 6.46076,-0.17067 z M 383.7175,38.908424 c -8.23654,-1.939479 -14.09788,-7.088664 -15.28754,-13.430099 -0.92925,-4.953327 2.83849,-12.111252 8.40707,-15.9716748 3.80176,-2.6355718 5.16718,-2.9999937 11.06332,-2.9527158 15.65209,0.1255055 24.5549,10.2407166 19.55192,22.2145366 -2.26921,5.430989 -5.21412,8.083326 -10.82506,9.749594 -5.52785,1.641596 -7.36063,1.697015 -12.90971,0.390359 z"
       id="path1691" />
  </g>
</svg>
